<?xml version="1.0" encoding="UTF-8" standalone="no"?><svg xmlns="http://www.w3.org/2000/svg" xmlns:xlink="http://www.w3.org/1999/xlink" fill="#000000" height="67.9" preserveAspectRatio="xMidYMid meet" version="1" viewBox="0.0 -0.5 205.4 67.9" width="205.4" zoomAndPan="magnify"><g><g id="change1_1"><path d="M178.6,64.1L30.3,46.7c-12.5-1.5-21.5-12.8-20-25.3l0,0c1.5-12.5,12.8-21.5,25.3-20l148.3,17.4 c12.5,1.5,21.5,12.8,20,25.3l0,0C202.5,56.6,191.1,65.6,178.6,64.1z" fill="#ffffff"/></g><g><g id="change2_2"><path d="M205.2,41.8c0.1-5.6-1.7-10.9-5.2-15.3c-4-5-9.7-8.2-16-9L35.7,0.2c-6.3-0.7-12.6,1-17.7,5s-8.2,9.7-9,16 c-0.2,1.5-0.2,2.9-0.1,4.3c-0.1,5.6,1.7,10.9,5.2,15.4c4,5,9.7,8.2,16,9l148.3,17.4l0,0c0.9,0.1,1.9,0.1,2.8,0.1 c6.2,0,12.2-2.4,16.7-6.8c3.9-3.8,6.4-8.9,7.1-14.4C205.3,44.8,205.3,43.3,205.2,41.8z M11.4,23.6c0.7-5.8,3.5-10.9,8.1-14.5 s10.2-5.2,16-4.6l148.3,17.4c5.8,0.7,10.9,3.5,14.5,8.1c2.7,3.5,4.3,7.6,4.6,11.9c0,0.7-0.1,1.4-0.1,2.1 c-1.4,11.9-12.2,20.5-24.1,19.1L30.4,45.6c-5.8-0.7-10.9-3.5-14.5-8.1c-2.7-3.5-4.3-7.6-4.6-11.9C11.3,25,11.3,24.3,11.4,23.6z" fill="#ffffff"/></g><g id="change3_1"><path d="M202.9,45.9c0.7-5.8-0.9-11.5-4.6-16c-3.6-4.6-8.8-7.4-14.5-8.1L35.5,4.5c-5.8-0.7-11.5,0.9-16,4.6 c-4.6,3.6-7.4,8.8-8.1,14.5C10,35.5,18.6,46.3,30.5,47.7l148.3,17.4c6.5,0.7,13-1.4,17.7-6C200,55.5,202.3,50.9,202.9,45.9z" fill="#000000"/></g></g><g><g id="change4_8"><path d="M32.7,16.9l11.5,1.3l-0.4,3.2l-8-0.9L35.3,25l7.4,0.9l-0.4,3.2l-7.4-0.9L34,35.5l-3.5-0.4L32.7,16.9z" fill="#ffde59"/></g><g id="change4_1"><path d="M56.9,19.7l3.4,0.4L59,31.7c-0.1,1.2-0.4,2.2-0.8,3s-0.9,1.5-1.6,2c-0.6,0.5-1.3,0.8-2.2,1s-1.7,0.2-2.6,0.1 c-2.2-0.3-3.8-1-4.8-2.2c-0.9-1.2-1.3-2.9-1-5l1.4-12l3.5,0.4l-1.3,11.3c-0.1,1.4,0,2.4,0.4,3.1c0.4,0.7,1.2,1.1,2.2,1.2 s1.8-0.1,2.4-0.7c0.5-0.6,0.9-1.6,1-2.9L56.9,19.7z" fill="#ffde59"/></g><g id="change4_9"><path d="M65.5,28.3h-0.1l-0.1,2.2l-1,8.5l-3.4-0.4L63,20.5l3.1,0.4l5,11.8h0.1v-2.2l1-8.9l3.4,0.4l-2.1,18.1 l-3.1-0.4L65.5,28.3z" fill="#ffde59"/></g><g id="change4_10"><path d="M87.2,35.5l2.8,0.3L89.4,41c-0.6,0.3-1.3,0.6-2.2,0.7c-0.9,0.1-1.8,0.1-2.7,0c-1.1-0.1-2.2-0.4-3.2-0.9 c-1-0.4-1.8-1.1-2.5-1.9c-0.7-0.9-1.2-1.9-1.5-3.1c-0.3-1.3-0.4-2.7-0.2-4.4c0.2-1.8,0.6-3.2,1.3-4.4c0.7-1.1,1.5-2,2.4-2.7 c0.9-0.6,1.9-1,2.9-1.3c1-0.2,2.1-0.2,3.1-0.1c1,0.1,1.9,0.3,2.6,0.6c0.7,0.3,1.3,0.5,1.7,0.8l-0.6,5.4l-2.8-0.3l0.3-2.9 c-0.5-0.1-1.1-0.3-1.6-0.3c-0.7-0.1-1.3,0-1.9,0.1c-0.6,0.2-1.2,0.5-1.6,1c-0.5,0.5-0.9,1.1-1.2,1.8s-0.6,1.7-0.7,2.7 c-0.1,0.9-0.1,1.8,0,2.6s0.4,1.5,0.7,2.1c0.4,0.6,0.9,1.1,1.4,1.5c0.6,0.4,1.3,0.6,2.1,0.7c0.6,0.1,1.1,0.1,1.7,0L87.2,35.5z" fill="#ffde59"/></g><g id="change4_2"><path d="M93.9,39.5l2.9,0.3l1.5-12.4l-2.5-0.3l-0.4,3.1l-2.8-0.3l0.7-6l14.2,1.6l-0.7,6l-2.8-0.3l0.4-3.1l-2.5-0.3 l-1.5,12.4l2.9,0.3l-0.3,2.8l-9.4-1.1L93.9,39.5z" fill="#ffde59"/></g><g id="change4_4"><path d="M107.8,40.8l4.6,0.5l1.4-11.8l-4.6-0.5l0.4-3.2l12.7,1.5l-0.4,3.2l-4.6-0.5l-1.4,11.8l4.6,0.5l-0.4,3.2 L107.4,44L107.8,40.8z" fill="#ffde59"/></g><g id="change4_3"><path d="M123.6,36.7c0.2-1.5,0.4-2.8,0.9-3.9c0.4-1.2,0.9-2.1,1.6-2.8c0.7-0.7,1.5-1.3,2.4-1.6 c0.9-0.3,1.9-0.4,3.1-0.3c1.2,0.1,2.3,0.5,3.1,1.1c0.8,0.6,1.4,1.3,1.9,2.2s0.7,1.9,0.9,3.1c0.1,1.2,0.1,2.5-0.1,3.8 c-0.3,2.9-1.2,5.2-2.5,6.7c-1.3,1.5-3.1,2.2-5.4,1.9c-1.2-0.1-2.3-0.5-3.1-1.1s-1.5-1.3-1.9-2.2s-0.7-1.9-0.8-3.1 C123.4,39.4,123.4,38.1,123.6,36.7z M127.3,37.1c-0.1,0.9-0.1,1.7-0.2,2.5c0,0.8,0.1,1.5,0.2,2c0.1,0.6,0.4,1.1,0.8,1.5 c0.4,0.4,0.9,0.6,1.6,0.7c0.6,0.1,1.1,0,1.5-0.2s0.8-0.6,1.1-1c0.3-0.5,0.6-1.1,0.7-1.9c0.2-0.8,0.3-1.7,0.5-2.8 c0.1-0.9,0.1-1.6,0.2-2.4c0-0.8,0-1.5-0.2-2.1c-0.1-0.6-0.4-1.1-0.8-1.5c-0.4-0.4-0.9-0.6-1.6-0.7c-1.2-0.1-2.1,0.3-2.7,1.3 C127.9,33.6,127.5,35.1,127.3,37.1z" fill="#ffde59"/></g><g id="change4_5"><path d="M143.2,37.3h-0.1l-0.1,2.2l-1,8.5l-3.4-0.4l2.1-18.1l3.1,0.4l5,11.8h0.1v-2.2l1-8.9l3.4,0.4l-2.1,18.1 l-3.1-0.4L143.2,37.3z" fill="#ffde59"/></g><g id="change4_7"><path d="M164.1,53.4c-1.2-0.3-2.3-0.9-3.4-1.6c-1.1-0.7-2-1.6-2.8-2.7c-0.8-1.1-1.3-2.3-1.7-3.8s-0.4-3.1-0.2-4.9 c0.2-1.8,0.7-3.4,1.3-4.7c0.7-1.3,1.5-2.4,2.5-3.3c1-0.9,2.1-1.5,3.3-2c1.2-0.5,2.4-0.7,3.7-0.8l0.3,2.8 c-0.6,0.1-1.3,0.2-2.1,0.5c-0.8,0.3-1.6,0.7-2.4,1.3c-0.8,0.6-1.5,1.5-2.1,2.5c-0.6,1-1,2.4-1.2,4.1c-0.2,1.6-0.1,2.9,0.3,4.1 c0.4,1.2,0.9,2.1,1.5,2.9c0.6,0.8,1.3,1.4,2,1.8c0.7,0.4,1.3,0.7,1.8,0.9L164.1,53.4z" fill="#ffde59"/></g><g id="change4_6"><path d="M171.3,51.4c0.5,0,1.2-0.2,2-0.4c0.8-0.3,1.6-0.7,2.4-1.3c0.8-0.6,1.5-1.4,2.1-2.5c0.6-1,1-2.4,1.2-3.9 c0.2-1.6,0.1-3.1-0.2-4.2c-0.3-1.2-0.8-2.1-1.4-2.9s-1.3-1.4-2-1.8c-0.7-0.4-1.4-0.8-2-1l0.9-2.7c1.2,0.4,2.3,0.9,3.4,1.6 c1.1,0.7,2,1.6,2.8,2.7c0.7,1.1,1.3,2.4,1.7,3.8c0.4,1.5,0.4,3.1,0.2,4.9c-0.2,1.8-0.7,3.4-1.3,4.7c-0.7,1.3-1.5,2.4-2.5,3.3 c-1,0.9-2.1,1.5-3.3,1.9c-1.2,0.4-2.4,0.7-3.7,0.7L171.3,51.4z" fill="#ffde59"/></g></g><g><g id="change2_1"><circle cx="10.5" cy="20.5" fill="#ffffff" r="10.5"/></g><g id="change3_2"><circle cx="10.5" cy="20.5" fill="#000000" r="4.4"/></g></g></g></svg>